<?xml version="1.0" encoding="iso-8859-1"?>
<!-- Uploaded to: SVG Repo, www.svgrepo.com, Generator: SVG Repo Mixer Tools -->
<svg fill="#000000" height="800px" width="800px" version="1.1" id="Layer_1" xmlns="http://www.w3.org/2000/svg" xmlns:xlink="http://www.w3.org/1999/xlink" 
	 viewBox="0 0 447 447" xml:space="preserve">
<g transform="translate(0 -540.36)">
	<g>
		<g>
			<circle cx="152.38" cy="938.057" r="7.5"/>
			<path d="M211.18,671.06c22,0,39.9-18.5,39.9-41.1c0-21.6-18.3-39.9-39.9-39.9c-22.7,0-41.1,17.9-41.1,39.9
				C170.08,652.66,188.48,671.06,211.18,671.06z M211.18,605.06c13.3,0,24.9,11.6,24.9,24.9c0,14.1-11.4,26.1-24.9,26.1
				c-14.6,0-26.1-11.5-26.1-26.1C185.08,616.46,196.98,605.06,211.18,605.06z"/>
			<path d="M84.08,876.06L84.08,876.06c-1.9-3.7-6.4-5.2-10.1-3.3c-3.7,1.9-5.2,6.4-3.3,10.1c12.3,24.5,26.2,42.9,54.1,53.6
				c0.9,0.3,1.8,0.5,2.7,0.5c3,0,5.9-1.8,7-4.8c1.5-3.9-0.5-8.2-4.3-9.7C106.58,913.46,95.08,898.06,84.08,876.06z"/>
			<path d="M411.78,969.26L411.78,969.26c-6.3-0.3-24.6-1.8-33.1-4.6c-0.1,0-0.3-0.1-0.4-0.1c-17.2-4.6-47.3-26.1-47.6-26.3
				c-2.1-1.5-4.9-1.8-7.3-0.8c-0.6,0.3-64.6,27.1-98.2,31.9c-0.1,0-0.1,0-0.2,0c-21.6,3.6-43.5,3.6-65.1,0c-0.1,0-0.1,0-0.2,0
				c-17.9-2.6-34.3-9.3-47.9-15.6c-18.5-8.6-35.9-16.7-47.3-30.3c-8.8-11.8-11.7-25.8-14.7-40.5c-0.4-2-0.8-4.1-1.3-6.1
				c-7.4-45.7-7.4-81.5-0.1-112.8c5.5-20.7,16.4-42,32.5-63.5c10-13.6,33.1-34,43.5-42.9c4.8,15,13.4,28.4,24.7,38.9l-11,11.9
				c-2.3,2.4-2.6,6.1-1,8.9c3.3,5.6,12.3,22.1,14.1,31.4c0,0.1,0,0.2,0.1,0.3c3,12.1,2.5,35.9,2.3,41.5
				c-8.5,8.9-15.4,17.5-15.9,18.1c-2.6,3.2-2.1,8,1.2,10.5c1.4,1.1,3,1.7,4.7,1.7c2.2,0,4.4-1,5.9-2.8c5.3-6.6,21.4-25.3,31.8-32
				c15.2-8.8,31.3-14,46.6-15.1c21.3-1.2,44.7,7.7,62.8,15.6c17.7,8.3,48.1,32.5,48.5,32.7c3.1,2.5,7.6,2.1,10.3-0.9
				c0.2-0.2,20.6-22.9,32.5-32.6c9.6-5.9,32.1-15.3,32.3-15.4c3.8-1.6,5.6-6,4-9.8c-1.6-3.8-6-5.6-9.8-4c-1,0.4-24.4,10.3-34.8,16.8
				c-0.2,0.2-0.5,0.3-0.7,0.5c-9.3,7.4-22.9,21.7-30,29.4c-10-7.7-31.3-23.5-46-30.3c-0.1,0-0.1-0.1-0.2-0.1
				c-19.6-8.5-45.2-18.2-69.7-16.8h-0.1c-17.7,1.3-36.1,7.2-53.3,17.2c-0.1,0-0.2,0.1-0.2,0.2c-1.5,0.9-3,2-4.6,3.3
				c-0.1-10-0.8-22.5-2.9-31c-2-9.9-9.1-23.6-13.1-31l8.1-8.7c14.4,9.6,31.7,15.2,50.3,15.2c23.8,0,46.3-9.5,63.4-26.7
				c17.1-17.3,26.5-40.1,26.5-64.4c0-23.7-9.4-46.2-26.5-63.3c-17.1-17.1-39.6-26.5-63.3-26.5c-24.3,0-47.1,9.4-64.4,26.5
				c-17.2,17.1-26.7,39.6-26.7,63.4c0,3.8,0.2,7.5,0.7,11.2c-0.2,0.1-0.4,0.3-0.7,0.5c-1.5,1.2-37.2,30.8-51.3,49.9
				c-17.3,23-29.1,46.1-35,68.7c0,0.1,0,0.1-0.1,0.2c-7.8,33.3-7.8,71.1-0.1,118.9c0,0.1,0,0.3,0.1,0.4c0.4,2.1,0.9,4.1,1.3,6.2
				c3.3,15.8,6.6,32.1,17.6,46.7c0.1,0.1,0.2,0.2,0.2,0.3c13.6,16.3,33.4,25.5,52.7,34.4c14.6,6.7,32.2,14,52,16.8
				c11.6,1.9,23.3,2.9,34.9,2.9c11.7,0,23.3-1,34.9-2.9c31-4.4,83.3-25.3,98-31.3c8.8,6.1,32.6,21.7,48.8,26.1
				c12.2,4,35.8,5.2,36.8,5.3c4.2,0.2,7.7-3,7.9-7.1C419.08,972.96,415.88,969.46,411.78,969.26z M211.18,555.06
				c40.6,0,74.9,34.3,74.9,74.9c0,42-33.6,76.1-74.9,76.1c-42,0-76.1-34.1-76.1-76.1C135.08,588.66,169.18,555.06,211.18,555.06z"/>
		</g>
	</g>
</g>
</svg>